<?xml version="1.0" encoding="utf-8"?><svg version="1.1" id="Brush" xmlns="http://www.w3.org/2000/svg" xmlns:xlink="http://www.w3.org/1999/xlink" x="0px" y="0px" viewBox="0 129.506 595.279 582.878" enable-background="new 0 129.506 595.279 582.878" xml:space="preserve"><title>Artboard 1 copy 3</title><radialGradient id="SVGID_1_" cx="97.8049" cy="759.6548" r="143.7904" gradientTransform="matrix(2.7036 0 0 -2.7036 -27.3184 2376.8354)" gradientUnits="userSpaceOnUse"><stop offset="0" style="stop-color:#3A2A1D"/><stop offset="0.77" style="stop-color:#241405"/></radialGradient><rect x="0" y="129.506" fill="url(#SVGID_1_)" width="595.279" height="582.878"/><path fill="#FF7618" d="M41.545,419.705c0,141.437,114.658,256.095,256.095,256.095c141.438,0,256.095-114.658,256.095-256.095	c0-141.438-114.657-256.095-256.095-256.095C156.203,163.61,41.545,278.268,41.545,419.705z M67.961,419.705	c0.15-126.862,103.114-229.582,229.977-229.431c126.861,0.151,229.581,103.115,229.431,229.977	c-0.15,126.765-102.964,229.444-229.729,229.431C170.71,649.613,67.867,546.66,67.937,419.73c0-0.008,0-0.017,0-0.025H67.961z"/><path fill="#FFE0CB" d="M297.64,267.735c18.305,0.018,35.013,10.42,43.108,26.837c-4.354,2.574-8.363,5.691-11.931,9.276	c-17.212,17.211-45.118,17.211-62.33,0c-3.572-3.581-7.58-6.698-11.931-9.276C262.639,278.155,279.341,267.751,297.64,267.735z M345.386,310.57c0.199,1.754,0.299,3.518,0.298,5.283c0.041,30.896,25.085,55.929,55.981,55.956	c1.765-0.001,3.529,0.098,5.283,0.298c-1.381,1.901-2.906,3.692-4.564,5.357c-23.387,23.392-23.387,61.312,0,84.703	c1.658,1.674,3.185,3.475,4.564,5.383c-1.754,0.199-3.519,0.299-5.283,0.299c-30.883,0.025-55.915,25.047-55.956,55.93	c0.002,1.775-0.098,3.547-0.298,5.309c-1.91-1.389-3.709-2.922-5.383-4.588c-23.405-23.377-61.322-23.377-84.728,0	c-1.673,1.666-3.473,3.199-5.383,4.588c-0.191-1.762-0.283-3.535-0.272-5.309c-0.055-30.877-25.079-55.891-55.956-55.93	c-1.758,0-3.513-0.1-5.259-0.299c1.377-1.904,2.903-3.695,4.563-5.357c23.397-23.387,23.405-61.314,0.018-84.711	c-0.006-0.005-0.012-0.011-0.018-0.017c-1.669-1.662-3.203-3.453-4.588-5.357c1.754-0.2,3.518-0.299,5.283-0.298	c30.887-0.041,55.915-25.069,55.956-55.957c-0.009-1.765,0.082-3.528,0.272-5.283c1.91,1.388,3.71,2.922,5.383,4.588	c23.388,23.397,61.314,23.405,84.711,0.017c0.006-0.005,0.012-0.011,0.017-0.017C341.697,313.497,343.488,311.963,345.386,310.57z M422.823,376.746c23.794,11.68,33.614,40.438,21.934,64.232c-4.682,9.537-12.396,17.252-21.934,21.934	c-2.587-4.352-5.712-8.359-9.302-11.93c-17.194-17.209-17.194-45.097,0-62.306c3.599-3.608,6.724-7.659,9.302-12.054V376.746z M340.748,544.986c-11.715,23.809-40.512,33.613-64.319,21.898c-9.516-4.684-17.215-12.383-21.897-21.898	c4.351-2.578,8.359-5.695,11.931-9.275c17.218-17.197,45.112-17.197,62.331,0c3.586,3.539,7.603,6.613,11.955,9.152V544.986z M172.457,462.789c-23.794-11.682-33.614-40.439-21.934-64.233c4.682-9.538,12.396-17.252,21.934-21.934	c2.583,4.348,5.699,8.356,9.276,11.93c17.206,17.201,17.21,45.092,0.01,62.297c-0.004,0.002-0.007,0.006-0.01,0.008	C178.162,454.437,175.046,458.445,172.457,462.789z M297.64,579.613c21.291-0.016,40.733-12.098,50.177-31.178	c30.52,12.873,65.696-1.43,78.57-31.949c6.284-14.898,6.287-31.703,0.007-46.604c27.705-13.662,39.091-47.195,25.43-74.9	c-5.446-11.045-14.385-19.983-25.43-25.429c12.865-30.523-1.45-65.695-31.973-78.56c-14.9-6.28-31.706-6.278-46.604,0.007	c-13.474-27.706-46.856-39.242-74.561-25.768c-11.232,5.462-20.306,14.536-25.769,25.768c-30.537-12.865-65.722,1.461-78.587,31.998	c-6.271,14.884-6.275,31.667-0.015,46.554c-27.698,13.675-39.066,47.214-25.392,74.912c5.442,11.025,14.367,19.949,25.392,25.393	c-12.881,30.516,1.414,65.695,31.93,78.578c14.912,6.293,31.735,6.293,46.647,0C256.906,567.515,276.349,579.597,297.64,579.613z M352.778,533.279c0.55-3.17,0.823-6.381,0.818-9.598c0.027-26.52,21.525-48.006,48.044-48.02c3.226,0.006,6.446-0.27,9.624-0.818	c10.145,22.143,0.419,48.316-21.724,58.461c-11.663,5.344-25.075,5.344-36.737,0L352.778,533.279z M411.24,364.617	c-3.171-0.549-6.382-0.823-9.6-0.818c-26.519-0.014-48.017-21.501-48.044-48.02c-0.003-3.218-0.285-6.43-0.843-9.599	c22.142-10.146,48.316-0.422,58.463,21.72c5.337,11.646,5.345,25.038,0.023,36.691V364.617z M242.576,306.155	c-0.55,3.178-0.824,6.398-0.818,9.624c-0.055,26.532-21.586,48.008-48.118,47.995c-3.218-0.005-6.429,0.269-9.599,0.818	c-10.146-22.143-0.419-48.317,21.724-58.461c11.663-5.343,25.074-5.343,36.737,0L242.576,306.155z M184.115,474.818	c3.171,0.545,6.382,0.818,9.599,0.818c26.513,0.027,48.003,21.506,48.044,48.02c-0.006,3.225,0.268,6.445,0.818,9.623	c-22.122,10.189-48.315,0.516-58.504-21.607c-5.382-11.684-5.394-25.135-0.031-36.828L184.115,474.818z"/></svg>